<svg width="24" height="24" viewBox="0 0 24 24" fill="none" xmlns="http://www.w3.org/2000/svg">
<path d="M12 1.5C6.20101 1.5 1.5 6.20101 1.5 12C1.5 17.799 6.20101 22.5 12 22.5C17.799 22.5 22.5 17.799 22.5 12C22.5 6.20101 17.799 1.5 12 1.5ZM8.22656 5.67078C8.4429 5.65802 8.63844 5.78733 8.78668 6.01684L10.2222 8.73924C10.3734 9.06184 10.2875 9.40725 10.062 9.63774L9.40449 10.2953C9.3639 10.3509 9.3372 10.4135 9.33655 10.4824C9.58871 11.4585 10.3536 12.3588 11.0285 12.978C11.7033 13.5971 12.4286 14.4354 13.3702 14.634C13.4866 14.6664 13.6291 14.6781 13.7124 14.6007L14.4763 13.8226C14.74 13.6228 15.1215 13.5259 15.403 13.6893H15.4158L18.0062 15.2185C18.3864 15.4568 18.4258 15.9175 18.1536 16.1977L16.3695 17.9678C16.106 18.238 15.7559 18.3288 15.4159 18.3292C13.9118 18.2842 12.4906 17.5459 11.3233 16.7873C9.4072 15.3934 7.64962 13.6645 6.54621 11.5757C6.12303 10.6999 5.6259 9.58232 5.67335 8.6047C5.67758 8.23692 5.77709 7.87661 6.03609 7.63956L7.82026 5.85538C7.95925 5.73712 8.09675 5.67844 8.22656 5.67078Z" fill="black"/>
</svg>
