<svg width="24" height="24" viewBox="0 0 24 24" fill="none" xmlns="http://www.w3.org/2000/svg">
<path fill-rule="evenodd" clip-rule="evenodd" d="M12 22.5C17.799 22.5 22.5 17.799 22.5 12C22.5 6.20099 17.799 1.5 12 1.5C6.20099 1.5 1.5 6.20099 1.5 12C1.5 17.799 6.20099 22.5 12 22.5ZM12 13.3783L18.2673 8.01337C18.1688 7.94757 18.0374 7.89844 17.9062 7.89844H6.09375C5.96259 7.89844 5.83121 7.94757 5.73273 8.01337L12 13.3783ZM5.4375 8.63672L11.5734 13.8705C11.8195 14.0837 12.1805 14.0837 12.4266 13.8705L18.5625 8.62048V15.4453C18.5625 15.8063 18.2673 16.1016 17.9062 16.1016H6.09375C5.99548 16.1016 5.90213 16.0798 5.81818 16.0405C5.59387 15.9358 5.4375 15.7081 5.4375 15.4453V8.63672Z" fill="black"/>
</svg>
