<svg width="24" height="24" viewBox="0 0 24 24" fill="none" xmlns="http://www.w3.org/2000/svg">
<path d="M12 1.5C6.20094 1.5 1.5 6.20094 1.5 12C1.5 17.7991 6.20094 22.5 12 22.5C17.7991 22.5 22.5 17.7991 22.5 12C22.5 6.20094 17.7991 1.5 12 1.5ZM9.42969 16.352H7.30344V9.50953H9.42969V16.352ZM8.35344 8.66953C7.68187 8.66953 7.24766 8.19375 7.24766 7.60531C7.24766 7.00484 7.695 6.54328 8.38078 6.54328C9.06656 6.54328 9.48656 7.00484 9.49969 7.60531C9.49969 8.19375 9.06656 8.66953 8.35344 8.66953ZM17.1953 16.352H15.0691V12.56C15.0691 11.6773 14.7606 11.078 13.9917 11.078C13.4044 11.078 13.0555 11.4838 12.9013 11.8742C12.8444 12.0131 12.8302 12.21 12.8302 12.4058V16.3509H10.7028V11.6916C10.7028 10.8373 10.6755 10.1231 10.647 9.50844H12.4944L12.5917 10.4589H12.6344C12.9144 10.0127 13.6002 9.35422 14.7475 9.35422C16.1464 9.35422 17.1953 10.2916 17.1953 12.3063V16.352Z" fill="black"/>
</svg>
