<svg width="40" height="40" viewBox="0 0 40 40" fill="none" xmlns="http://www.w3.org/2000/svg">
<rect x="11" y="11" width="18" height="18" rx="3" fill="#3A6150"/>
<path d="M22.7012 16.3899L18.9212 21.3899L17.2912 19.2799C17.1281 19.0704 16.8884 18.9343 16.6249 18.9014C16.3614 18.8686 16.0957 18.9418 15.8862 19.1049C15.6766 19.268 15.5405 19.5077 15.5077 19.7712C15.4749 20.0347 15.5481 20.3004 15.7112 20.5099L18.1412 23.6199C18.2353 23.7391 18.3554 23.8353 18.4923 23.9011C18.6292 23.967 18.7793 24.0008 18.9312 23.9999C19.0839 23.9996 19.2345 23.9642 19.3714 23.8966C19.5084 23.829 19.628 23.7309 19.7212 23.6099L24.2912 17.6099C24.4529 17.3978 24.5238 17.13 24.4882 16.8656C24.4526 16.6012 24.3133 16.3617 24.1012 16.1999C23.889 16.0382 23.6212 15.9673 23.3568 16.0029C23.0924 16.0385 22.8529 16.1778 22.6912 16.3899H22.7012Z" fill="white"/>
</svg>
