<svg width="24" height="24" viewBox="0 0 24 24" fill="none" xmlns="http://www.w3.org/2000/svg">
<path d="M8.71875 10.3594C8.71875 12.1641 10.1953 13.6406 12 13.6406C13.8047 13.6406 15.2812 12.1641 15.2812 10.3594C15.2812 8.55469 13.8047 7.07812 12 7.07812C10.1953 7.07812 8.71875 8.55469 8.71875 10.3594Z" fill="black"/>
<path fill-rule="evenodd" clip-rule="evenodd" d="M22.5 12C22.5 17.799 17.799 22.5 12 22.5C6.20101 22.5 1.5 17.799 1.5 12C1.5 6.20101 6.20101 1.5 12 1.5C17.799 1.5 22.5 6.20101 22.5 12ZM7.07812 10.3594C7.07812 7.63594 9.27656 5.4375 12 5.4375C14.7234 5.4375 16.9219 7.63594 16.9219 10.3594C16.9219 12.8203 12.8859 17.5453 12.1313 18.4148C12.0656 18.4969 11.9508 18.4969 11.8852 18.4148C11.1141 17.5453 7.07812 12.8203 7.07812 10.3594Z" fill="black"/>
</svg>
