<svg width="24" height="24" viewBox="0 0 24 24" fill="none" xmlns="http://www.w3.org/2000/svg">
<path d="M13.6907 12.2548C13.6844 12.5874 13.5794 12.9107 13.3892 13.1836C13.1989 13.4565 12.9319 13.6668 12.622 13.7877C12.3121 13.9087 11.9732 13.935 11.6484 13.8632C11.3236 13.7913 11.0274 13.6247 10.7973 13.3844C10.5673 13.144 10.4138 12.8408 10.3563 12.5131C10.2989 12.1854 10.3399 11.8481 10.4744 11.5438C10.6089 11.2395 10.8306 10.982 11.1116 10.8038C11.3926 10.6257 11.7202 10.5351 12.0527 10.5433C12.4947 10.5597 12.9129 10.7475 13.2187 11.067C13.5244 11.3865 13.6938 11.8126 13.6907 12.2548Z" fill="black"/>
<path fill-rule="evenodd" clip-rule="evenodd" d="M14.9012 6.99449H9.20502C8.64139 6.99449 8.10085 7.21839 7.7023 7.61694C7.30375 8.01548 7.07985 8.55603 7.07985 9.11966V14.9439C7.07985 15.223 7.13482 15.4994 7.24162 15.7572C7.34842 16.015 7.50496 16.2493 7.7023 16.4467C7.89964 16.644 8.13392 16.8005 8.39175 16.9073C8.64959 17.0141 8.92594 17.0691 9.20502 17.0691H14.9012C15.1803 17.0691 15.4566 17.0141 15.7145 16.9073C15.9723 16.8005 16.2066 16.644 16.4039 16.4467C16.6013 16.2493 16.7578 16.015 16.8646 15.7572C16.9714 15.4994 17.0264 15.223 17.0264 14.9439V9.13016C17.0275 8.85027 16.9733 8.57292 16.8671 8.31399C16.7608 8.05507 16.6045 7.81966 16.407 7.62126C16.2096 7.42286 15.975 7.26537 15.7166 7.15782C15.4582 7.05027 15.1811 6.99476 14.9012 6.99449ZM12.0526 15.1035C11.4887 15.1163 10.9338 14.9607 10.4587 14.6567C9.98367 14.3527 9.60996 13.914 9.38529 13.3966C9.16063 12.8793 9.09521 12.3067 9.19737 11.752C9.29954 11.1973 9.56467 10.6857 9.95892 10.2823C10.3532 9.87898 10.8587 9.60224 11.4109 9.48744C11.9631 9.37264 12.537 9.42498 13.0593 9.63778C13.5817 9.85058 14.0288 10.2142 14.3435 10.6822C14.6583 11.1502 14.8265 11.7014 14.8267 12.2654C14.831 12.6339 14.7626 12.9997 14.6255 13.3418C14.4884 13.6839 14.2852 13.9956 14.0276 14.2592C13.77 14.5228 13.463 14.733 13.1241 14.8779C12.7852 15.0227 12.4211 15.0994 12.0526 15.1035ZM15.1351 9.42836C15.0659 9.42834 14.9974 9.41453 14.9336 9.38773C14.8697 9.36091 14.8118 9.3216 14.7633 9.27213C14.7148 9.22265 14.6767 9.16399 14.6511 9.09959C14.6256 9.03519 14.6132 8.96633 14.6146 8.89706C14.6146 8.75616 14.6705 8.62102 14.7702 8.52138C14.8698 8.42175 15.0049 8.36577 15.1458 8.36577C15.2868 8.36577 15.4219 8.42175 15.5215 8.52138C15.6212 8.62102 15.6771 8.75616 15.6771 8.89706C15.6792 8.97207 15.6651 9.04664 15.6357 9.11567C15.6063 9.18471 15.5623 9.24657 15.5067 9.29702C15.4512 9.34748 15.3854 9.38534 15.3139 9.408C15.2423 9.43067 15.1668 9.43761 15.0923 9.42836H15.1351Z" fill="black"/>
<path fill-rule="evenodd" clip-rule="evenodd" d="M4.61259 4.53835C6.59155 2.57909 9.26776 1.48621 12.0525 1.50013C13.4314 1.50703 14.7954 1.78544 16.0666 2.31948C17.3379 2.85351 18.4915 3.63272 19.4617 4.61259C20.4318 5.59247 21.1994 6.75384 21.7207 8.03038C22.242 9.30692 22.5068 10.6736 22.4999 12.0525C22.493 13.4314 22.2146 14.7954 21.6805 16.0666C21.1465 17.3379 20.3673 18.4915 19.3874 19.4617C18.4075 20.4318 17.2462 21.1994 15.9696 21.7207C14.6931 22.242 13.3264 22.5068 11.9475 22.4999C9.16276 22.4859 6.49761 21.3664 4.53835 19.3874C2.57909 17.4085 1.48621 14.7322 1.50013 11.9475C1.51406 9.16276 2.63364 6.49761 4.61259 4.53835ZM18.1625 16.2109C18.3414 15.7751 18.432 15.3081 18.4291 14.8371V9.24588C18.4319 8.77491 18.3411 8.30807 18.1622 7.87241C17.9833 7.43675 17.7196 7.04094 17.3866 6.70791C17.0536 6.37488 16.6577 6.11125 16.2221 5.9323C15.7864 5.75335 15.3196 5.66264 14.8486 5.66543H9.25743C8.78637 5.66264 8.31945 5.75338 7.88372 5.9324C7.44799 6.11141 7.05213 6.37513 6.71908 6.70828C6.38604 7.04142 6.12243 7.43736 5.94354 7.87314C5.76466 8.30892 5.67405 8.77588 5.67698 9.24694V14.8381C5.67447 15.3091 5.76541 15.7759 5.94452 16.2115C6.12363 16.6471 6.38737 17.0428 6.72045 17.3758C7.05354 17.7088 7.44937 17.9724 7.88502 18.1514C8.32068 18.3304 8.7875 18.4212 9.25848 18.4186H14.8486C15.3197 18.4214 15.7866 18.3306 16.2223 18.1516C16.6581 17.9726 17.0539 17.7089 17.387 17.3757C17.72 17.0426 17.9836 16.6466 18.1625 16.2109Z" fill="black"/>
</svg>
